# xmcd CD database file
#
# Track frame offsets:
#	150
#	14522
#	33312
#	50650
#	68332
#	86637
#
# Disc length: 1400 seconds
#
# Revision: 0
# Processed by: cddbd v1.5.1PL0 Copyright (c) Steve Scherf et al.
# Submitted via: CDex 1.51
#
DISCID=44057606
DTITLE=BLACK BOTTOM BRASS BAND - KINSYASA!
DYEAR=1900
DGENRE=Big Band
TTITLE0=HAVE FUN
TTITLE1=センチメンタル★ディスコ
TTITLE2=B.B.TRAiN
TTITLE3=HEART INDIGO
TTITLE4=ELECTION
TTITLE5=SAMBA DE MENTHOLE
EXTD=
EXTT0=
EXTT1=
EXTT2=
EXTT3=
EXTT4=
EXTT5=
PLAYORDER=
